<mxfile host="app.diagrams.net" agent="Mozilla/5.0 (X11; Linux x86_64) AppleWebKit/537.36 (KHTML, like Gecko) Chrome/133.0.0.0 Safari/537.36" version="27.0.3">
  <diagram name="Page-1" id="Ho83NtdGlwVbVLpjscvk">
    <mxGraphModel dx="2093" dy="1773" grid="1" gridSize="10" guides="1" tooltips="1" connect="1" arrows="1" fold="1" page="1" pageScale="1" pageWidth="850" pageHeight="1100" math="0" shadow="0">
      <root>
        <mxCell id="0" />
        <mxCell id="1" parent="0" />
        <mxCell id="XDPB26-MJzTsvSnHrAAn-3" style="edgeStyle=orthogonalEdgeStyle;rounded=0;orthogonalLoop=1;jettySize=auto;html=1;entryX=0.5;entryY=0;entryDx=0;entryDy=0;" edge="1" parent="1" source="XDPB26-MJzTsvSnHrAAn-1" target="XDPB26-MJzTsvSnHrAAn-2">
          <mxGeometry relative="1" as="geometry" />
        </mxCell>
        <mxCell id="XDPB26-MJzTsvSnHrAAn-5" style="edgeStyle=orthogonalEdgeStyle;rounded=0;orthogonalLoop=1;jettySize=auto;html=1;" edge="1" parent="1" source="XDPB26-MJzTsvSnHrAAn-1">
          <mxGeometry relative="1" as="geometry">
            <mxPoint x="690" y="210" as="targetPoint" />
          </mxGeometry>
        </mxCell>
        <mxCell id="XDPB26-MJzTsvSnHrAAn-1" value="Команда /start (Чекаем что за юзер и в зависимости от этого выбрасываем сообщение)." style="rounded=1;whiteSpace=wrap;html=1;" vertex="1" parent="1">
          <mxGeometry x="320" y="50" width="230" height="70" as="geometry" />
        </mxCell>
        <mxCell id="XDPB26-MJzTsvSnHrAAn-2" value="Выбрасываем кнопку launch app" style="rounded=1;whiteSpace=wrap;html=1;" vertex="1" parent="1">
          <mxGeometry x="100" y="240" width="120" height="60" as="geometry" />
        </mxCell>
        <mxCell id="XDPB26-MJzTsvSnHrAAn-4" value="Если юзер есть" style="text;html=1;align=center;verticalAlign=middle;whiteSpace=wrap;rounded=0;" vertex="1" parent="1">
          <mxGeometry x="200" y="40" width="60" height="30" as="geometry" />
        </mxCell>
        <mxCell id="XDPB26-MJzTsvSnHrAAn-7" value="Если юзера нет" style="text;html=1;align=center;verticalAlign=middle;whiteSpace=wrap;rounded=0;" vertex="1" parent="1">
          <mxGeometry x="600" y="40" width="60" height="30" as="geometry" />
        </mxCell>
        <mxCell id="XDPB26-MJzTsvSnHrAAn-11" style="edgeStyle=orthogonalEdgeStyle;rounded=0;orthogonalLoop=1;jettySize=auto;html=1;entryX=0.5;entryY=0;entryDx=0;entryDy=0;" edge="1" parent="1" source="XDPB26-MJzTsvSnHrAAn-8" target="XDPB26-MJzTsvSnHrAAn-10">
          <mxGeometry relative="1" as="geometry" />
        </mxCell>
        <mxCell id="XDPB26-MJzTsvSnHrAAn-8" value="Выбрасываем кнопку создать юзера" style="rounded=1;whiteSpace=wrap;html=1;" vertex="1" parent="1">
          <mxGeometry x="630" y="220" width="120" height="60" as="geometry" />
        </mxCell>
        <mxCell id="XDPB26-MJzTsvSnHrAAn-9" value="Команда /start" style="ellipse;whiteSpace=wrap;html=1;" vertex="1" parent="1">
          <mxGeometry x="375" y="-70" width="120" height="80" as="geometry" />
        </mxCell>
        <mxCell id="XDPB26-MJzTsvSnHrAAn-13" style="edgeStyle=orthogonalEdgeStyle;rounded=0;orthogonalLoop=1;jettySize=auto;html=1;entryX=0.5;entryY=0.167;entryDx=0;entryDy=0;entryPerimeter=0;" edge="1" parent="1" source="XDPB26-MJzTsvSnHrAAn-10" target="XDPB26-MJzTsvSnHrAAn-12">
          <mxGeometry relative="1" as="geometry">
            <mxPoint x="690" y="550" as="targetPoint" />
          </mxGeometry>
        </mxCell>
        <mxCell id="XDPB26-MJzTsvSnHrAAn-20" style="edgeStyle=orthogonalEdgeStyle;rounded=0;orthogonalLoop=1;jettySize=auto;html=1;exitX=0.5;exitY=1;exitDx=0;exitDy=0;entryX=1;entryY=0.5;entryDx=0;entryDy=0;" edge="1" parent="1" source="XDPB26-MJzTsvSnHrAAn-10" target="XDPB26-MJzTsvSnHrAAn-10">
          <mxGeometry relative="1" as="geometry">
            <mxPoint x="760" y="550" as="targetPoint" />
          </mxGeometry>
        </mxCell>
        <mxCell id="XDPB26-MJzTsvSnHrAAn-10" value="Просим дать email для восстановления доступа" style="rounded=1;whiteSpace=wrap;html=1;" vertex="1" parent="1">
          <mxGeometry x="510" y="400" width="120" height="60" as="geometry" />
        </mxCell>
        <mxCell id="XDPB26-MJzTsvSnHrAAn-15" style="edgeStyle=orthogonalEdgeStyle;rounded=0;orthogonalLoop=1;jettySize=auto;html=1;entryX=0.5;entryY=0;entryDx=0;entryDy=0;" edge="1" parent="1" source="XDPB26-MJzTsvSnHrAAn-12" target="XDPB26-MJzTsvSnHrAAn-14">
          <mxGeometry relative="1" as="geometry" />
        </mxCell>
        <mxCell id="XDPB26-MJzTsvSnHrAAn-26" style="edgeStyle=orthogonalEdgeStyle;rounded=0;orthogonalLoop=1;jettySize=auto;html=1;exitX=1;exitY=0.5;exitDx=0;exitDy=0;" edge="1" parent="1" source="XDPB26-MJzTsvSnHrAAn-12" target="XDPB26-MJzTsvSnHrAAn-25">
          <mxGeometry relative="1" as="geometry" />
        </mxCell>
        <mxCell id="XDPB26-MJzTsvSnHrAAn-12" value="Отправка на email кода доступа и дать пользователю его ввести" style="rounded=1;whiteSpace=wrap;html=1;" vertex="1" parent="1">
          <mxGeometry x="440" y="550" width="120" height="60" as="geometry" />
        </mxCell>
        <mxCell id="XDPB26-MJzTsvSnHrAAn-16" style="edgeStyle=orthogonalEdgeStyle;rounded=0;orthogonalLoop=1;jettySize=auto;html=1;" edge="1" parent="1" source="XDPB26-MJzTsvSnHrAAn-14" target="XDPB26-MJzTsvSnHrAAn-17">
          <mxGeometry relative="1" as="geometry">
            <mxPoint x="330" y="860" as="targetPoint" />
          </mxGeometry>
        </mxCell>
        <mxCell id="XDPB26-MJzTsvSnHrAAn-14" value="Поздравляем с регистрацией, даем кнопку launch app" style="rounded=1;whiteSpace=wrap;html=1;" vertex="1" parent="1">
          <mxGeometry x="270" y="680" width="120" height="60" as="geometry" />
        </mxCell>
        <mxCell id="XDPB26-MJzTsvSnHrAAn-17" value="Text" style="text;html=1;align=center;verticalAlign=middle;whiteSpace=wrap;rounded=0;" vertex="1" parent="1">
          <mxGeometry x="300" y="845" width="60" height="30" as="geometry" />
        </mxCell>
        <mxCell id="XDPB26-MJzTsvSnHrAAn-18" value="email верен" style="text;html=1;align=center;verticalAlign=middle;whiteSpace=wrap;rounded=0;" vertex="1" parent="1">
          <mxGeometry x="490" y="470" width="60" height="30" as="geometry" />
        </mxCell>
        <mxCell id="XDPB26-MJzTsvSnHrAAn-21" value="email неверен" style="text;html=1;align=center;verticalAlign=middle;whiteSpace=wrap;rounded=0;" vertex="1" parent="1">
          <mxGeometry x="660" y="430" width="60" height="30" as="geometry" />
        </mxCell>
        <mxCell id="XDPB26-MJzTsvSnHrAAn-24" value="Код верен" style="text;html=1;align=center;verticalAlign=middle;whiteSpace=wrap;rounded=0;" vertex="1" parent="1">
          <mxGeometry x="340" y="540" width="60" height="30" as="geometry" />
        </mxCell>
        <mxCell id="XDPB26-MJzTsvSnHrAAn-25" value="Пишем что указанный код неверен, необходимо дать другой код и вытаскиваем кнопку повторить попытку" style="rounded=1;whiteSpace=wrap;html=1;" vertex="1" parent="1">
          <mxGeometry x="530" y="730" width="190" height="110" as="geometry" />
        </mxCell>
      </root>
    </mxGraphModel>
  </diagram>
</mxfile>
